<svg xmlns="http://www.w3.org/2000/svg" viewBox="0 0 100 100"><circle cx="50" cy="50" r="45" fill="none" stroke="#1C1714" stroke-width="6.3"/><path fill="#1C1714" fill-rule="evenodd" d="M47.03 47.03L37.07 49.18A15.8 15.8 0 1 1 49.18 37.07ZM39.73 33.03A6.7 6.7 0 1 0 26.33 33.03A6.7 6.7 0 1 0 39.73 33.03Z"/><path fill="#1C1714" fill-rule="evenodd" d="M52.97 47.03L50.82 37.07A15.8 15.8 0 1 1 62.93 49.18ZM73.67 33.03A6.7 6.7 0 1 0 60.27 33.03A6.7 6.7 0 1 0 73.67 33.03Z"/><path fill="#1C1714" fill-rule="evenodd" d="M52.97 52.97L62.93 50.82A15.8 15.8 0 1 1 50.82 62.93ZM73.67 66.97A6.7 6.7 0 1 0 60.27 66.97A6.7 6.7 0 1 0 73.67 66.97Z"/><path fill="#1C1714" fill-rule="evenodd" d="M47.03 52.97L49.18 62.93A15.8 15.8 0 1 1 37.07 50.82ZM39.73 66.97A6.7 6.7 0 1 0 26.33 66.97A6.7 6.7 0 1 0 39.73 66.97Z"/></svg>
